<svg width="24" height="24" viewBox="0 0 24 24" fill="none" xmlns="http://www.w3.org/2000/svg">
<path d="M19.9998 10L19.9998 9C19.9998 8.07003 19.9998 7.60504 19.8975 7.22354C19.6201 6.18827 18.8115 5.37962 17.7762 5.10222C17.3947 5 16.9297 5 15.9998 5" stroke="white" stroke-width="2" stroke-linejoin="round"/>
<path d="M19.9998 14L19.9998 15C19.9998 15.93 19.9998 16.395 19.8975 16.7765C19.6201 17.8117 18.8115 18.6204 17.7762 18.8978C17.3947 19 16.9297 19 15.9998 19" stroke="white" stroke-width="2" stroke-linejoin="round"/>
<path d="M9.99976 19L8.99976 19C7.13052 19 6.19591 19 5.49976 18.5981C5.0437 18.3348 4.66498 17.9561 4.40168 17.5C3.99976 16.8038 3.99976 15.8692 3.99976 14" stroke="white" stroke-width="2" stroke-linejoin="round"/>
<path d="M9.99976 5L8.99976 5C7.13052 5 6.19591 5 5.49976 5.40192C5.0437 5.66523 4.66498 6.04394 4.40168 6.5C3.99976 7.19615 3.99976 8.13077 3.99976 10" stroke="white" stroke-width="2" stroke-linejoin="round"/>
<path d="M9.99976 21L9.99976 3" stroke="white" stroke-width="2" stroke-linecap="round" stroke-linejoin="round"/>
</svg>
