<svg width="24" height="24" viewBox="0 0 24 24" fill="none" xmlns="http://www.w3.org/2000/svg">
<path fill-rule="evenodd" clip-rule="evenodd" d="M14.4551 2.47362C13.6942 2.16764 12.8648 2 11.9998 2C8.64373 2 5.82436 4.52345 5.45375 7.85899L5.20195 10.1252L5.19589 10.1793C5.08307 11.1625 4.76303 12.1106 4.2569 12.9611L4.22895 13.0077L3.65092 13.9711L3.62677 14.0114C3.38525 14.4138 3.16643 14.7785 3.02068 15.0879C2.87256 15.4024 2.71419 15.8286 2.79042 16.3117C2.86577 16.7893 3.11155 17.2233 3.48227 17.5337C3.85734 17.8476 4.30422 17.931 4.65011 17.9658C4.99048 18.0001 5.41573 18 5.88512 18L5.93202 18H18.0676L18.1145 18C18.5838 18 19.0091 18.0001 19.3495 17.9658C19.6954 17.931 20.1422 17.8476 20.5173 17.5337C20.888 17.2233 21.1338 16.7893 21.2092 16.3117C21.2854 15.8286 21.127 15.4024 20.9789 15.0879C20.8331 14.7785 20.6143 14.4138 20.3728 14.0114L20.3487 13.9711L19.7706 13.0077L19.7427 12.9611C19.3639 12.3247 19.0894 11.6336 18.9279 10.914C18.6272 10.9705 18.3169 11 17.9998 11C17.6158 11 17.242 10.9567 16.8828 10.8748C17.0674 11.9715 17.4539 13.0259 18.024 13.9839L18.0556 14.0367L18.6337 15.0001C18.9072 15.456 19.072 15.733 19.1695 15.9401C19.1749 15.9514 19.1798 15.9621 19.1842 15.972C19.1734 15.9733 19.1617 15.9746 19.1493 15.9759C18.9215 15.9988 18.5992 16 18.0676 16H5.93202C5.40043 16 5.07805 15.9988 4.85031 15.9759C4.83785 15.9746 4.82621 15.9733 4.81534 15.972C4.81983 15.9621 4.82472 15.9514 4.83005 15.9401C4.92758 15.733 5.0924 15.456 5.3659 15.0001L5.94394 14.0367L5.97557 13.9839C6.62631 12.8904 7.03779 11.6714 7.18286 10.4073L7.18971 10.3461L7.44152 8.07985C7.69959 5.75718 9.66283 4 11.9998 4C12.4628 4 12.9112 4.06898 13.3345 4.19767C13.5864 3.54594 13.971 2.96023 14.4551 2.47362ZM16.9819 4.27804C16.394 4.62632 15.9998 5.26713 15.9998 6C15.9998 6.14503 16.0152 6.28645 16.0445 6.42272C16.1649 6.6476 16.2673 6.88404 16.3495 7.13021C16.7099 7.65547 17.3146 8 17.9998 8C18.1917 8 18.3772 7.97298 18.5529 7.92254L18.5458 7.85899C18.3936 6.48875 17.8281 5.25555 16.9819 4.27804Z" fill="black"/>
<path d="M9.10198 17.6647C9.2729 18.6215 9.64954 19.467 10.1735 20.0701C10.6974 20.6731 11.3394 21 11.9998 21C12.6602 21 13.3021 20.6731 13.826 20.0701C14.35 19.467 14.7266 18.6215 14.8975 17.6647" stroke="black" stroke-width="2" stroke-linecap="round"/>
<circle cx="17.9998" cy="6" r="2" fill="#FF0000"/>
</svg>
