<svg width="16" height="16" viewBox="0 0 16 16" fill="none" xmlns="http://www.w3.org/2000/svg">
<path d="M10.1672 3.99545C10.4324 4.02384 10.6437 4.1456 10.8118 4.27377C10.9895 4.40935 11.1804 4.60235 11.3762 4.79819L11.4827 4.90463L11.7678 5.1937C11.8573 5.28795 11.9393 5.38027 12.0071 5.46909C12.1536 5.66117 12.2913 5.9099 12.2913 6.2308C12.2913 6.55171 12.1536 6.80043 12.0071 6.99252C11.9393 7.08134 11.8573 7.17366 11.7678 7.26791L11.4827 7.55698L6.98657 12.0531C6.91292 12.1267 6.82309 12.2212 6.71313 12.3031L6.59595 12.3792C6.51373 12.4257 6.42749 12.4589 6.34497 12.4847L6.11548 12.5462L4.45728 12.9613C4.36488 12.9844 4.22615 13.0207 4.10474 13.0326C3.99168 13.0436 3.76129 13.0474 3.55103 12.8939L3.46216 12.8187C3.23167 12.5882 3.23565 12.3053 3.24829 12.1761C3.26019 12.0547 3.29648 11.916 3.31958 11.8236L3.73462 10.1654L3.79614 9.93588C3.82195 9.85336 3.85511 9.76712 3.90161 9.68491L3.97778 9.56772C4.05012 9.47052 4.13249 9.38916 4.20142 9.32065L8.72388 4.79819L9.01294 4.51303C9.1072 4.42357 9.19951 4.34154 9.28833 4.27377C9.48042 4.12726 9.72914 3.98959 10.05 3.98959L10.1672 3.99545Z" stroke="white" stroke-width="1.25"/>
<path d="M8.48755 5.2933L10.3625 4.0433L12.2375 5.9183L10.9875 7.7933L8.48755 5.2933Z" fill="white"/>
</svg>
