<svg width="24" height="24" viewBox="0 0 24 24" fill="none" xmlns="http://www.w3.org/2000/svg">
<path d="M4.99976 12.7596C4.99976 11.4019 4.99976 10.723 5.27422 10.1262C5.54868 9.52949 6.06412 9.08769 7.09501 8.20407L8.09501 7.34693C9.95833 5.7498 10.89 4.95123 11.9998 4.95123C13.1095 4.95123 14.0412 5.7498 15.9045 7.34693L16.9045 8.20407C17.9354 9.08769 18.4508 9.52949 18.7253 10.1262C18.9998 10.723 18.9998 11.4019 18.9998 12.7596V17C18.9998 18.8856 18.9998 19.8284 18.414 20.4142C17.8282 21 16.8854 21 14.9998 21H8.99976C7.11414 21 6.17133 21 5.58554 20.4142C4.99976 19.8284 4.99976 18.8856 4.99976 17V12.7596Z" stroke="white"/>
<path d="M14.4998 21V16C14.4998 15.4477 14.052 15 13.4998 15H10.4998C9.94747 15 9.49976 15.4477 9.49976 16V21" stroke="white" stroke-linecap="round" stroke-linejoin="round"/>
</svg>
