<svg width="24" height="24" viewBox="0 0 24 24" fill="none" xmlns="http://www.w3.org/2000/svg">
<path d="M14.1359 3.36144L15.1309 3.26194L14.1359 3.36144ZM13.9835 2.54161L13.0948 3V3L13.9835 2.54161ZM14.4308 4.81793L15.2259 4.21141L15.2259 4.21141L14.4308 4.81793ZM15.3592 5.20248L15.2259 4.21141L15.3592 5.20248ZM16.5976 4.38113L17.2309 5.15509L17.2309 5.15509L16.5976 4.38113ZM17.2851 3.90918L17.5894 4.86175L17.2851 3.90918ZM17.987 3.94419L18.3846 3.02663L18.3846 3.02663L17.987 3.94419ZM18.624 4.4822L17.9169 5.1893L17.9169 5.18931L18.624 4.4822ZM19.5175 5.37567L20.2246 4.66856L20.2246 4.66856L19.5175 5.37567ZM20.0555 6.01275L20.9731 5.61517L20.9731 5.61516L20.0555 6.01275ZM20.0905 6.71464L21.0431 7.01895L21.0431 7.01894L20.0905 6.71464ZM19.6186 7.4021L18.8446 6.76886L18.8446 6.76886L19.6186 7.4021ZM18.7972 8.64056L17.8061 8.50724L17.8061 8.50725L18.7972 8.64056ZM19.1818 9.56893L18.5752 10.364L18.5752 10.364L19.1818 9.56893ZM20.6383 9.86385L20.7378 8.86882L20.6383 9.86385ZM21.4582 10.0162L21.9166 9.1275L21.9166 9.1275L21.4582 10.0162ZM21.9297 10.5373L22.8596 10.1696L22.8596 10.1696L21.9297 10.5373ZM21.9297 13.4626L20.9998 13.095L20.9998 13.095L21.9297 13.4626ZM21.4581 13.9838L21.9164 14.8726L21.9164 14.8726L21.4581 13.9838ZM20.6384 14.1361L20.5389 13.1411L20.5063 13.1444L20.474 13.1497L20.6384 14.1361ZM20.6384 14.1361L20.7379 15.1312L20.7705 15.1279L20.8028 15.1225L20.6384 14.1361ZM19.1823 14.4309L18.5759 13.6357L18.5759 13.6357L19.1823 14.4309ZM18.7976 15.3596L17.8066 15.4931V15.4931L18.7976 15.3596ZM19.6187 16.5976L18.8448 17.2308H18.8448L19.6187 16.5976ZM20.0905 17.2848L19.138 17.5892V17.5892L20.0905 17.2848ZM20.0555 17.9869L19.138 17.5892L19.138 17.5892L20.0555 17.9869ZM19.5177 18.6238L20.2248 19.3309H20.2248L19.5177 18.6238ZM18.6241 19.5174L17.917 18.8102L17.917 18.8103L18.6241 19.5174ZM17.987 20.0554L18.3846 20.9729L18.3846 20.9729L17.987 20.0554ZM17.2851 20.0904L16.9808 21.0429L16.9808 21.0429L17.2851 20.0904ZM16.5977 19.6184L17.231 18.8444L17.2224 18.8376L16.5977 19.6184ZM16.5977 19.6184L15.9644 20.3924L15.973 20.3993L16.5977 19.6184ZM15.3593 18.7971L15.4926 17.806H15.4926L15.3593 18.7971ZM14.4309 19.1816L15.2259 19.7882L15.2259 19.7881L14.4309 19.1816ZM14.1359 20.6383L13.1409 20.5388V20.5388L14.1359 20.6383ZM13.9835 21.4585L13.0948 21L13.0948 21L13.9835 21.4585ZM13.4626 21.9299L13.0948 21L13.0948 21L13.4626 21.9299ZM10.5371 21.9299L10.9047 21L10.5371 21.9299ZM10.016 21.4584L10.9047 21H10.9047L10.016 21.4584ZM9.86361 20.6385L8.86857 20.7381V20.7381L9.86361 20.6385ZM9.56867 19.182L8.77362 19.7885L8.77362 19.7885L9.56867 19.182ZM8.64033 18.7975L8.50703 17.8064H8.50703L8.64033 18.7975ZM7.40183 19.6189L6.76859 18.8449L6.75276 18.8579L6.73747 18.8714L7.40183 19.6189ZM7.40182 19.6189L8.03506 20.3928L8.05089 20.3799L8.06618 20.3663L7.40182 19.6189ZM6.71434 20.0908L7.01863 21.0434H7.01863L6.71434 20.0908ZM6.01248 20.0558L5.61491 20.9734H5.61491L6.01248 20.0558ZM5.37536 19.5178L6.08247 18.8107H6.08247L5.37536 19.5178ZM4.48192 18.6243L3.77482 19.3315L3.77482 19.3315L4.48192 18.6243ZM3.94389 17.9873L4.86146 17.5897L4.86146 17.5897L3.94389 17.9873ZM3.90889 17.2854L4.86146 17.5897L4.86146 17.5897L3.90889 17.2854ZM4.38086 16.5979L5.15482 17.2311H5.15482L4.38086 16.5979ZM5.20223 15.3594L6.1933 15.4928L5.20223 15.3594ZM4.81768 14.4311L5.4242 13.636L5.4242 13.636L4.81768 14.4311ZM3.36119 14.1361L3.26168 15.1312H3.26168L3.36119 14.1361ZM2.54137 13.9838L2.99975 13.095H2.99975L2.54137 13.9838ZM2.0698 13.4627L1.13985 13.8304L1.13985 13.8304L2.0698 13.4627ZM2.06984 10.5372L1.13992 10.1694L1.13992 10.1694L2.06984 10.5372ZM2.54128 10.0163L2.0828 9.12757L2.0828 9.12757L2.54128 10.0163ZM3.36131 9.86384V8.86384H3.31143L3.2618 8.86881L3.36131 9.86384ZM3.36131 9.86384V10.8638H3.41119L3.46082 10.8589L3.36131 9.86384ZM4.81817 9.56881L4.21153 8.77383L4.21153 8.77383L4.81817 9.56881ZM5.20262 8.64066L6.19372 8.50749L6.19372 8.50749L5.20262 8.64066ZM4.38103 7.40182L5.15499 6.76858H5.15499L4.38103 7.40182ZM3.90889 6.71405L4.86151 6.40988L4.86151 6.40988L3.90889 6.71405ZM3.94389 6.01243L3.02626 5.61498L3.02626 5.61498L3.94389 6.01243ZM4.48209 5.37509L5.1892 6.0822H5.1892L4.48209 5.37509ZM5.37541 4.48177L4.6683 3.77466V3.77466L5.37541 4.48177ZM6.01252 3.94373L5.61495 3.02615L5.61495 3.02616L6.01252 3.94373ZM6.71438 3.90872L7.01868 2.95614V2.95614L6.71438 3.90872ZM7.40195 4.38076L8.03519 3.60681V3.60681L7.40195 4.38076ZM8.6402 5.20207L8.77367 4.21101L8.6402 5.20207ZM9.56882 4.81742L8.77367 4.21101L8.77367 4.21101L9.56882 4.81742ZM9.86363 3.36131L10.8587 3.46081V3.46081L9.86363 3.36131ZM10.0159 2.5417L9.12714 2.08341L9.12714 2.08341L10.0159 2.5417ZM10.5372 2.07001L10.9047 3L10.9047 3L10.5372 2.07001ZM13.4624 2.07005L13.8301 1.1401V1.1401L13.4624 2.07005ZM15.1309 3.26194C15.1106 3.05831 15.091 2.85693 15.0624 2.6868C15.0322 2.50684 14.9826 2.29705 14.8723 2.08322L13.0948 3C13.0718 2.95549 13.0767 2.93878 13.09 3.01798C13.1049 3.10701 13.1179 3.23089 13.1409 3.46094L15.1309 3.26194ZM15.2259 4.21141C15.2891 4.29433 15.269 4.33101 15.2339 4.13595C15.2005 3.95045 15.1737 3.68915 15.1309 3.26194L13.1409 3.46094C13.1802 3.85459 13.2149 4.20895 13.2655 4.49017C13.3144 4.76184 13.4007 5.11633 13.6357 5.42445L15.2259 4.21141ZM15.2259 4.21141L15.2259 4.21141L13.6357 5.42444C14.0716 5.99575 14.7804 6.28935 15.4925 6.19355L15.2259 4.21141ZM15.9644 3.60717C15.6321 3.87905 15.4283 4.04481 15.2736 4.15238C15.1108 4.26548 15.1225 4.22531 15.2259 4.21141L15.4925 6.19355C15.8766 6.14188 16.1883 5.95223 16.4149 5.7947C16.6496 5.63163 16.9247 5.4056 17.2309 5.15509L15.9644 3.60717ZM16.9808 2.95661C16.7516 3.02983 16.5682 3.14308 16.4195 3.24897C16.279 3.34907 16.1228 3.47759 15.9644 3.60717L17.2309 5.15509C17.4098 5.00869 17.5065 4.93022 17.58 4.87784C17.6454 4.83124 17.6371 4.84651 17.5894 4.86175L16.9808 2.95661ZM18.3846 3.02663C17.9405 2.83421 17.4417 2.80934 16.9808 2.95661L17.5894 4.86175L17.5894 4.86175L18.3846 3.02663ZM19.3312 3.77509C19.1865 3.6304 19.0438 3.48696 18.9139 3.37338C18.7766 3.25323 18.6053 3.12228 18.3846 3.02663L17.5894 4.86175C17.5434 4.84184 17.5366 4.82581 17.5971 4.87869C17.665 4.93813 17.7535 5.02583 17.9169 5.1893L19.3312 3.77509ZM20.2246 4.66856L19.3312 3.77509L17.9169 5.18931L18.8104 6.08277L20.2246 4.66856ZM20.9731 5.61516C20.8774 5.39441 20.7465 5.22316 20.6263 5.08581C20.5128 4.95597 20.3693 4.81326 20.2246 4.66856L18.8104 6.08277C18.9739 6.24626 19.0616 6.33469 19.121 6.40264C19.1739 6.46308 19.1579 6.45629 19.138 6.41034L20.9731 5.61516ZM21.0431 7.01894C21.1904 6.55797 21.1655 6.05922 20.9731 5.61517L19.138 6.41034L19.138 6.41034L21.0431 7.01894ZM20.3925 8.03534C20.5221 7.87696 20.6506 7.72069 20.7508 7.58019C20.8566 7.43156 20.9699 7.24814 21.0431 7.01895L19.138 6.41033C19.1532 6.36263 19.1685 6.35427 19.1219 6.41968C19.0695 6.4932 18.991 6.58992 18.8446 6.76886L20.3925 8.03534ZM19.7883 8.77387C19.7744 8.87723 19.7342 8.88894 19.8473 8.72619C19.9549 8.57141 20.1207 8.36764 20.3925 8.03534L18.8446 6.76886C18.5941 7.07506 18.3681 7.35016 18.205 7.58481C18.0475 7.81148 17.8578 8.12317 17.8061 8.50724L19.7883 8.77387ZM19.7883 8.77387V8.77386L17.8061 8.50725C17.7104 9.21938 18.0039 9.92816 18.5752 10.364L19.7883 8.77387ZM20.7378 8.86882C20.3106 8.82609 20.0493 8.79922 19.8637 8.76584C19.6687 8.73073 19.7054 8.7106 19.7883 8.77387L18.5752 10.364C18.8833 10.599 19.2379 10.6853 19.5095 10.7342C19.7908 10.7848 20.1451 10.8195 20.5388 10.8589L20.7378 8.86882ZM21.9166 9.1275C21.7027 9.01721 21.4929 8.96759 21.313 8.93737C21.1428 8.9088 20.9414 8.88918 20.7378 8.86882L20.5388 10.8589C20.7689 10.8819 20.8927 10.8948 20.9818 10.9098C21.061 10.9231 21.0443 10.9279 20.9998 10.905L21.9166 9.1275ZM22.8596 10.1696C22.6817 9.71957 22.3466 9.34933 21.9166 9.1275L20.9998 10.905L20.9998 10.905L22.8596 10.1696ZM22.9998 11.3682C22.9998 11.1636 23.0003 10.9613 22.9888 10.7891C22.9766 10.607 22.9481 10.3933 22.8596 10.1696L20.9998 10.905C20.9813 10.8584 20.9879 10.8423 20.9932 10.9224C20.9992 11.0125 20.9998 11.137 20.9998 11.3682H22.9998ZM22.9998 12.6319V11.3682H20.9998V12.6319H22.9998ZM22.8597 13.8302C22.9481 13.6065 22.9766 13.3929 22.9888 13.2108C23.0003 13.0388 22.9998 12.8365 22.9998 12.6319H20.9998C20.9998 12.863 20.9992 12.9875 20.9932 13.0776C20.9879 13.1577 20.9813 13.1416 20.9998 13.095L22.8597 13.8302ZM21.9164 14.8726C22.3466 14.6507 22.6818 14.2804 22.8597 13.8302L20.9998 13.095V13.095L21.9164 14.8726ZM20.7379 15.1312C20.9415 15.1108 21.1428 15.0912 21.3129 15.0626C21.4928 15.0324 21.7026 14.9828 21.9164 14.8726L20.9998 13.095C21.0443 13.0721 21.061 13.077 20.9818 13.0902C20.8928 13.1052 20.7689 13.1181 20.5389 13.1411L20.7379 15.1312ZM20.8028 15.1225L20.8028 15.1225L20.474 13.1497L20.474 13.1497L20.8028 15.1225ZM19.7887 15.2261C19.7058 15.2893 19.6691 15.2692 19.8641 15.2341C20.0496 15.2007 20.3108 15.1739 20.7379 15.1312L20.5389 13.1411C20.1453 13.1805 19.7911 13.2151 19.5099 13.2657C19.2384 13.3146 18.884 13.4008 18.5759 13.6357L19.7887 15.2261ZM19.7887 15.2261L19.7887 15.2261L18.5759 13.6357C18.0043 14.0716 17.7106 14.7807 17.8066 15.4931L19.7887 15.2261ZM20.3927 15.9643C20.1209 15.6322 19.9552 15.4285 19.8477 15.2738C19.7346 15.1111 19.7747 15.1228 19.7887 15.2261L17.8066 15.4931C17.8583 15.877 18.0479 16.1886 18.2054 16.4152C18.3684 16.6497 18.5944 16.9247 18.8448 17.2308L20.3927 15.9643ZM21.0431 16.9803C20.9699 16.7513 20.8566 16.5679 20.7508 16.4193C20.6507 16.2789 20.5222 16.1227 20.3927 15.9643L18.8448 17.2308C18.9911 17.4097 19.0696 17.5064 19.1219 17.5799C19.1685 17.6453 19.1533 17.6369 19.138 17.5892L21.0431 16.9803ZM20.973 18.3846C21.1656 17.9404 21.1905 17.4415 21.0431 16.9803L19.138 17.5892L19.138 17.5892L20.973 18.3846ZM20.2248 19.3309C20.3694 19.1862 20.5128 19.0436 20.6264 18.9138C20.7465 18.7765 20.8774 18.6053 20.973 18.3846L19.138 17.5892C19.1579 17.5433 19.1739 17.5365 19.1211 17.5969C19.0617 17.6648 18.974 17.7532 18.8106 17.9167L20.2248 19.3309ZM19.3312 20.2245L20.2248 19.3309L18.8106 17.9167L17.917 18.8102L19.3312 20.2245ZM18.3846 20.9729C18.6054 20.8773 18.7766 20.7463 18.914 20.6262C19.0438 20.5126 19.1865 20.3692 19.3312 20.2245L17.917 18.8103C17.7535 18.9737 17.6651 19.0614 17.5971 19.1209C17.5367 19.1737 17.5435 19.1577 17.5894 19.1378L18.3846 20.9729ZM16.9808 21.0429C17.4418 21.1902 17.9406 21.1653 18.3846 20.9729L17.5894 19.1378H17.5894L16.9808 21.0429ZM15.9644 20.3924C16.1228 20.522 16.2791 20.6505 16.4196 20.7506C16.5682 20.8565 16.7516 20.9697 16.9808 21.0429L17.5894 19.1378C17.6371 19.153 17.6455 19.1683 17.5801 19.1217C17.5066 19.0693 17.4098 18.9909 17.2309 18.8445L15.9644 20.3924ZM15.973 20.3993L15.973 20.3993L17.2224 18.8376L17.2224 18.8375L15.973 20.3993ZM15.2259 19.7881C15.1226 19.7742 15.1109 19.7341 15.2736 19.8472C15.4284 19.9547 15.6321 20.1205 15.9644 20.3924L17.2309 18.8445C16.9247 18.5939 16.6496 18.3679 16.415 18.2048C16.1883 18.0473 15.8766 17.8577 15.4926 17.806L15.2259 19.7881ZM15.2259 19.7881H15.2259L15.4926 17.806C14.7804 17.7102 14.0716 18.0038 13.6358 18.5751L15.2259 19.7881ZM15.131 20.7378C15.1737 20.3105 15.2006 20.0492 15.234 19.8636C15.2691 19.6685 15.2892 19.7052 15.2259 19.7882L13.6358 18.5751C13.4007 18.8832 13.3145 19.2378 13.2656 19.5094C13.215 19.7907 13.1803 20.1451 13.1409 20.5388L15.131 20.7378ZM14.8722 21.917C14.9825 21.7031 15.0322 21.4932 15.0624 21.3132C15.091 21.143 15.1106 20.9415 15.131 20.7378L13.1409 20.5388C13.1179 20.769 13.105 20.8929 13.09 20.982C13.0767 21.0612 13.0718 21.0445 13.0948 21L14.8722 21.917ZM13.8303 22.8598C14.2802 22.6819 14.6504 22.3469 14.8722 21.917L13.0948 21L13.0948 21L13.8303 22.8598ZM12.6314 23C12.8361 23 13.0385 23.0005 13.2107 22.989C13.3928 22.9768 13.6066 22.9483 13.8303 22.8598L13.0948 21C13.1414 20.9816 13.1575 20.9881 13.0773 20.9935C12.9872 20.9995 12.8627 21 12.6314 21V23ZM11.368 23H12.6314V21H11.368V23ZM10.1694 22.8599C10.3931 22.9484 10.6068 22.9769 10.7889 22.989C10.961 23.0005 11.1634 23 11.368 23V21C11.1368 21 11.0122 20.9995 10.9222 20.9935C10.842 20.9881 10.8582 20.9816 10.9047 21L10.1694 22.8599ZM9.12725 21.9168C9.34908 22.3469 9.71933 22.682 10.1694 22.8599L10.9047 21L9.12725 21.9168ZM8.86857 20.7381C8.88894 20.9417 8.90856 21.1431 8.93712 21.3132C8.96734 21.4932 9.01696 21.703 9.12725 21.9168L10.9047 21C10.9277 21.0445 10.9228 21.0612 10.9095 20.982C10.8946 20.893 10.8817 20.7691 10.8586 20.539L8.86857 20.7381ZM8.77362 19.7885C8.71036 19.7056 8.73049 19.6689 8.76559 19.864C8.79898 20.0495 8.82585 20.3108 8.86857 20.7381L10.8586 20.539C10.8193 20.1454 10.7846 19.791 10.734 19.5098C10.6851 19.2381 10.5988 18.8836 10.3637 18.5755L8.77362 19.7885ZM8.77362 19.7885L10.3637 18.5755C9.92791 18.0042 9.21914 17.7106 8.50703 17.8064L8.77362 19.7885ZM8.03507 20.3928C8.36738 20.1209 8.57116 19.9551 8.72594 19.8476C8.8887 19.7345 8.87699 19.7746 8.77362 19.7885L8.50703 17.8064C8.12294 17.858 7.81124 18.0477 7.58456 18.2052C7.34991 18.3683 7.0748 18.5944 6.76859 18.8449L8.03507 20.3928ZM8.06618 20.3663L8.0662 20.3663L6.73747 18.8714L6.73745 18.8715L8.06618 20.3663ZM7.01863 21.0434C7.24782 20.9702 7.43126 20.8569 7.57989 20.751C7.7204 20.6509 7.87667 20.5224 8.03506 20.3928L6.76858 18.8449C6.58964 18.9913 6.49292 19.0698 6.41939 19.1222C6.35398 19.1688 6.36234 19.1535 6.41005 19.1383L7.01863 21.0434ZM5.61491 20.9734C6.05894 21.1658 6.55766 21.1907 7.01863 21.0434L6.41005 19.1383L6.41005 19.1383L5.61491 20.9734ZM4.66826 20.2249C4.81296 20.3696 4.95567 20.513 5.08552 20.6266C5.22288 20.7468 5.39414 20.8777 5.61491 20.9734L6.41005 19.1383C6.456 19.1582 6.4628 19.1742 6.40235 19.1213C6.3344 19.0619 6.24596 18.9742 6.08247 18.8107L4.66826 20.2249ZM3.77482 19.3315L4.66826 20.2249L6.08247 18.8107L5.18903 17.9172L3.77482 19.3315ZM3.02633 18.3848C3.12198 18.6056 3.25293 18.7768 3.37309 18.9142C3.48667 19.044 3.63011 19.1868 3.77482 19.3315L5.18903 17.9172C5.02554 17.7538 4.93784 17.6653 4.8784 17.5974C4.82552 17.5369 4.84155 17.5437 4.86146 17.5897L3.02633 18.3848ZM2.95631 16.9811C2.80905 17.4421 2.83393 17.9408 3.02633 18.3848L4.86146 17.5897V17.5897L2.95631 16.9811ZM3.6069 15.9647C3.47731 16.123 3.34879 16.2793 3.24868 16.4198C3.14279 16.5684 3.02953 16.7519 2.95631 16.9811L4.86146 17.5897C4.84622 17.6374 4.83095 17.6457 4.87755 17.5803C4.92994 17.5068 5.00841 17.4101 5.15482 17.2311L3.6069 15.9647ZM4.21115 15.2261C4.22506 15.1228 4.26523 15.1111 4.15212 15.2738C4.04455 15.4286 3.87879 15.6324 3.6069 15.9647L5.15482 17.2311C5.40534 16.9249 5.63138 16.6498 5.79445 16.4152C5.95198 16.1885 6.14164 15.8768 6.1933 15.4928L4.21115 15.2261ZM4.21115 15.2261L4.21115 15.2261L6.1933 15.4928C6.2891 14.7806 5.9955 14.0718 5.4242 13.636L4.21115 15.2261ZM3.26168 15.1312C3.6889 15.1739 3.9502 15.2008 4.1357 15.2342C4.33076 15.2693 4.29408 15.2894 4.21116 15.2261L5.4242 13.636C5.11609 13.4009 4.76159 13.3147 4.48992 13.2658C4.2087 13.2152 3.85434 13.1805 3.46069 13.1411L3.26168 15.1312ZM2.08298 14.8725C2.29681 14.9828 2.50659 15.0324 2.68656 15.0626C2.85669 15.0912 3.05806 15.1108 3.26168 15.1312L3.46069 13.1411C3.23064 13.1181 3.10677 13.1052 3.01774 13.0902C2.93854 13.0769 2.95525 13.0721 2.99975 13.095L2.08298 14.8725ZM1.13985 13.8304C1.31779 14.2804 1.65287 14.6507 2.08298 14.8725L2.99975 13.095H2.99976L1.13985 13.8304ZM0.999756 12.6318C0.999756 12.8364 0.999239 13.0387 1.01073 13.2109C1.02289 13.393 1.05139 13.6066 1.13985 13.8304L2.99976 13.095C3.01817 13.1416 3.01164 13.1577 3.00629 13.0776C3.00027 12.9875 2.99976 12.863 2.99976 12.6318H0.999756ZM0.999756 11.3683V12.6318H2.99976V11.3683H0.999756ZM1.13992 10.1694C1.05142 10.3932 1.02291 10.607 1.01074 10.7891C0.999238 10.9613 0.999756 11.1637 0.999756 11.3683H2.99976C2.99976 11.1371 3.00027 11.0125 3.00629 10.9224C3.01165 10.8423 3.01818 10.8584 2.99976 10.905L1.13992 10.1694ZM2.0828 9.12757C1.65284 9.34939 1.31786 9.71954 1.13992 10.1694L2.99976 10.905L2.99976 10.905L2.0828 9.12757ZM3.2618 8.86881C3.05813 8.88917 2.8567 8.9088 2.68653 8.93737C2.50651 8.9676 2.29667 9.01724 2.0828 9.12757L2.99975 10.905C2.95524 10.928 2.93852 10.9231 3.01774 10.9098C3.10679 10.8948 3.2307 10.8819 3.46081 10.8589L3.2618 8.86881ZM3.36131 8.86384H3.36131V10.8638H3.36131V8.86384ZM3.36131 8.86384H3.36131V10.8638H3.36131V8.86384ZM4.21153 8.77383C4.29446 8.71055 4.33117 8.73069 4.13606 8.7658C3.95051 8.7992 3.68914 8.82607 3.26181 8.86881L3.46082 10.8589C3.85457 10.8195 4.20902 10.7848 4.49032 10.7342C4.76206 10.6853 5.11665 10.5989 5.42481 10.3638L4.21153 8.77383ZM4.21153 8.77383L4.21153 8.77383L5.42481 10.3638C5.99588 9.92801 6.28938 9.21944 6.19372 8.50749L4.21153 8.77383ZM3.60708 8.03506C3.87905 8.36746 4.04487 8.5713 4.15247 8.72614C4.26562 8.88895 4.22542 8.87724 4.21153 8.77383L6.19372 8.50749C6.14209 8.1233 5.95239 7.81151 5.79482 7.58478C5.6317 7.35006 5.40559 7.07487 5.15499 6.76858L3.60708 8.03506ZM2.95627 7.01822C3.02949 7.24751 3.14278 7.43102 3.24871 7.5797C3.34885 7.72027 3.47743 7.8766 3.60708 8.03506L5.15499 6.76858C5.00852 6.58956 4.93002 6.49279 4.87761 6.41923C4.83099 6.35379 4.84627 6.36215 4.86151 6.40988L2.95627 7.01822ZM3.02626 5.61498C2.834 6.05887 2.80914 6.5574 2.95627 7.01822L4.86151 6.40988L3.02626 5.61498ZM3.77498 4.66798C3.63023 4.81274 3.48673 4.9555 3.37311 5.08539C3.25291 5.2228 3.12192 5.39412 3.02626 5.61498L4.86151 6.40988C4.8416 6.45585 4.82556 6.46265 4.87845 6.40219C4.93792 6.33421 5.02565 6.24574 5.1892 6.0822L3.77498 4.66798ZM4.6683 3.77466L3.77498 4.66798L5.1892 6.0822L6.08252 5.18888L4.6683 3.77466ZM4.6683 3.77466L4.6683 3.77466L6.08252 5.18888L6.08252 5.18887L4.6683 3.77466ZM5.61495 3.02616C5.39418 3.12181 5.22293 3.25276 5.08557 3.37292C4.95572 3.48651 4.81301 3.62995 4.6683 3.77466L6.08252 5.18887C6.24601 5.02538 6.33444 4.93768 6.4024 4.87824C6.46284 4.82536 6.45604 4.84139 6.41009 4.8613L5.61495 3.02616ZM7.01868 2.95614C6.55771 2.80889 6.05898 2.83377 5.61495 3.02615L6.41009 4.8613H6.41009L7.01868 2.95614ZM8.03519 3.60681C7.87678 3.47719 7.72048 3.34865 7.57997 3.24853C7.43133 3.14264 7.24788 3.02936 7.01868 2.95614L6.41009 4.8613C6.36237 4.84606 6.35401 4.83078 6.41945 4.8774C6.49299 4.9298 6.58974 5.00829 6.76871 5.15472L8.03519 3.60681ZM8.77367 4.21101C8.87702 4.22493 8.88872 4.26509 8.72597 4.15198C8.5712 4.04441 8.36745 3.87865 8.03519 3.60681L6.76871 5.15472C7.07487 5.40521 7.34993 5.63122 7.58453 5.79427C7.81114 5.95176 8.12275 6.14141 8.50673 6.19312L8.77367 4.21101ZM8.77367 4.21101L8.77367 4.21101L8.50673 6.19312C9.21907 6.28905 9.92811 5.99536 10.364 5.42382L8.77367 4.21101ZM8.86859 3.2618C8.82588 3.6889 8.79902 3.95012 8.76565 4.13558C8.73056 4.33059 8.71044 4.29392 8.77367 4.21101L10.364 5.42382C10.5989 5.11576 10.6852 4.76136 10.734 4.48976C10.7846 4.20861 10.8193 3.85435 10.8587 3.46081L8.86859 3.2618ZM9.12714 2.08341C9.01691 2.29719 8.96732 2.50692 8.93711 2.68683C8.90856 2.85692 8.88894 3.05824 8.86859 3.2618L10.8587 3.46081C10.8817 3.23082 10.8946 3.10698 10.9095 3.01798C10.9228 2.9388 10.9277 2.9555 10.9047 3L9.12714 2.08341ZM10.1696 1.14002C9.71938 1.31796 9.349 1.65315 9.12714 2.08341L10.9047 3L10.9047 3L10.1696 1.14002ZM11.3679 1C11.1633 1 10.961 0.999483 10.7889 1.01097C10.6069 1.02313 10.3933 1.05161 10.1696 1.14002L10.9047 3C10.8582 3.0184 10.842 3.01188 10.9222 3.00653C11.0122 3.00052 11.1367 3 11.3679 3V1ZM12.6315 1H11.3679V3H12.6315V1ZM13.8301 1.1401C13.6064 1.05163 13.3927 1.02314 13.2106 1.01098C13.0385 0.999483 12.8362 1 12.6315 1V3C12.8627 3 12.9873 3.00052 13.0774 3.00653C13.1575 3.01188 13.1413 3.01841 13.0948 3L13.8301 1.1401ZM14.8723 2.08322C14.6504 1.65312 14.2802 1.31803 13.8301 1.1401L13.0948 3L13.0948 3L14.8723 2.08322ZM14.9998 12C14.9998 13.6569 13.6566 15 11.9998 15V17C14.7612 17 16.9998 14.7614 16.9998 12H14.9998ZM11.9998 9C13.6566 9 14.9998 10.3431 14.9998 12H16.9998C16.9998 9.23858 14.7612 7 11.9998 7V9ZM8.99976 12C8.99976 10.3431 10.3429 9 11.9998 9V7C9.23833 7 6.99976 9.23858 6.99976 12H8.99976ZM11.9998 15C10.3429 15 8.99976 13.6569 8.99976 12H6.99976C6.99976 14.7614 9.23833 17 11.9998 17V15Z" fill="#0B0B0B"/>
</svg>
